<?xml version="1.0" encoding="utf-8"?>
<!-- Generator: Adobe Illustrator 16.0.0, SVG Export Plug-In . SVG Version: 6.00 Build 0)  -->
<!DOCTYPE svg PUBLIC "-//W3C//DTD SVG 1.1//EN" "http://www.w3.org/Graphics/SVG/1.1/DTD/svg11.dtd">
<svg version="1.1" id="Layer_1" xmlns="http://www.w3.org/2000/svg" xmlns:xlink="http://www.w3.org/1999/xlink" x="0px" y="0px"
	 width="200px" height="46px" viewBox="0 0 200 46" enable-background="new 0 0 200 46" xml:space="preserve">
<g>
	<g id="layer1" transform="translate(151.616,-642.7961)">
		<g id="g1967" transform="translate(7.081691,7.081144)">
			<path id="path8" fill="#404756" d="M-80.326,669.34c-7.024,5.178-17.2,7.947-25.97,7.947c-12.283,0-23.36-4.557-31.729-12.102
				c-0.663-0.603-0.061-1.404,0.723-0.943c9.031,5.258,20.209,8.408,31.75,8.408c7.787,0,16.336-1.605,24.203-4.957
				C-80.145,667.193-79.163,668.477-80.326,669.34"/>
			<path id="path10" fill="#404756" d="M-77.396,665.988c-0.902-1.145-5.941-0.543-8.188-0.281c-0.683,0.08-0.803-0.521-0.181-0.943
				c4.014-2.83,10.596-2.007,11.379-1.062c0.762,0.943-0.201,7.546-3.974,10.717c-0.582,0.48-1.124,0.221-0.884-0.422
				C-78.4,671.889-76.494,667.152-77.396,665.988"/>
			<path id="path12" fill="#404756" d="M-85.444,644.836v-2.75c0-0.422,0.322-0.703,0.703-0.703h12.303
				c0.401,0,0.702,0.281,0.702,0.703v2.348c0,0.402-0.342,0.902-0.923,1.725l-6.362,9.092c2.368-0.061,4.876,0.302,7.003,1.505
				c0.482,0.281,0.623,0.683,0.663,1.064v2.93c0,0.4-0.442,0.863-0.902,0.622c-3.773-1.987-8.811-2.208-12.985,0.021
				c-0.421,0.241-0.882-0.242-0.882-0.623v-2.789c0-0.442,0-1.205,0.461-1.888l7.386-10.575h-6.422
				C-85.122,645.518-85.444,645.236-85.444,644.836"/>
			<path id="path14" fill="#404756" d="M-130.298,661.954h-3.733c-0.361-0.021-0.642-0.302-0.663-0.644v-19.206
				c0-0.381,0.321-0.683,0.723-0.683h3.492c0.361,0.021,0.663,0.301,0.683,0.642v2.509h0.06c0.904-2.429,2.629-3.552,4.917-3.552
				c2.348,0,3.813,1.123,4.857,3.552c0.903-2.429,2.97-3.552,5.158-3.552c1.565,0,3.292,0.642,4.335,2.106
				c1.183,1.605,0.943,3.954,0.943,6.021v12.122c0,0.381-0.321,0.703-0.723,0.703h-3.734c-0.381-0.02-0.682-0.32-0.682-0.703
				v-10.174c0-0.803,0.08-2.83-0.1-3.593c-0.282-1.284-1.125-1.646-2.208-1.646c-0.903,0-1.846,0.602-2.228,1.566
				c-0.38,0.962-0.341,2.588-0.341,3.672v10.175c0,0.381-0.321,0.702-0.723,0.702h-3.732c-0.382-0.021-0.683-0.321-0.683-0.702
				v-10.175c0-2.147,0.361-5.299-2.309-5.299c-2.688,0-2.588,3.071-2.588,5.299v10.175
				C-129.576,661.652-129.897,661.954-130.298,661.954"/>
			<path id="path16" fill="#404756" d="M-61.16,641.043c5.559,0,8.549,4.776,8.549,10.837c0,5.86-3.312,10.496-8.549,10.496
				c-5.46,0-8.41-4.776-8.41-10.717C-69.569,645.679-66.56,641.043-61.16,641.043 M-61.12,644.956c-2.75,0-2.931,3.753-2.931,6.102
				c0,2.348-0.04,7.365,2.892,7.365c2.889,0,3.03-4.034,3.03-6.502c0-1.625-0.061-3.553-0.562-5.098
				C-59.093,645.478-59.936,644.956-61.12,644.956"/>
			<path id="path18" fill="#404756" d="M-45.407,661.954h-3.732c-0.381-0.021-0.684-0.32-0.684-0.702v-19.207
				c0.041-0.361,0.344-0.622,0.724-0.622h3.492c0.319,0.02,0.603,0.241,0.662,0.542v2.93h0.06c1.045-2.629,2.51-3.873,5.098-3.873
				c1.688,0,3.312,0.602,4.377,2.268c0.982,1.546,0.982,4.114,0.982,5.979v12.082c-0.04,0.342-0.359,0.602-0.723,0.602h-3.754
				c-0.34-0.02-0.621-0.28-0.661-0.602v-10.436c0-2.107,0.239-5.178-2.349-5.178c-0.902,0-1.746,0.602-2.168,1.545
				c-0.521,1.164-0.602,2.348-0.602,3.632v10.336C-44.683,661.652-45.004,661.954-45.407,661.954"/>
			<path id="path20" fill="#404756" d="M-32.101,660.429c0-0.963,0.823-1.746,1.847-1.746c1.024,0,1.848,0.783,1.848,1.746
				c0,0.964-0.823,1.746-1.848,1.746C-31.278,662.195-32.101,661.393-32.101,660.429"/>
			<path id="path22" fill="#404756" d="M7.537,661.974c-0.382-0.02-0.703-0.321-0.703-0.702v-19.208
				c0.021-0.34,0.301-0.602,0.662-0.622h1.365c0.383,0,0.682,0.281,0.723,0.622v2.79c0.982-2.227,2.789-3.954,5.098-3.954h0.142
				h0.142c2.447,0,4.233,1.808,4.896,4.416c1.044-2.589,2.991-4.416,5.56-4.416h0.141h0.16c1.808,0,3.553,1.164,4.477,2.951
				c0.885,1.706,0.844,3.954,0.844,5.86v11.54c0,0.36-0.303,0.661-0.662,0.702h-1.646c-0.361-0.021-0.643-0.262-0.702-0.603v-11.64
				c0-1.365,0.06-2.83-0.481-4.074c-0.562-1.285-1.666-2.087-2.83-2.128c-1.305,0.061-2.508,1.025-3.291,2.309
				c-1.004,1.666-0.982,3.15-0.982,5.097v10.497c-0.041,0.32-0.32,0.562-0.662,0.582h-1.626c-0.382-0.021-0.702-0.321-0.702-0.703
				l-0.021-12.322c0-1.125-0.06-2.469-0.581-3.472c-0.602-1.164-1.688-1.907-2.829-1.966c-1.185,0.059-2.368,0.962-3.071,2.006
				c-0.902,1.345-1.082,2.99-1.082,4.696v11.058c0,0.361-0.303,0.662-0.685,0.703H7.537"/>
			<path id="path24" fill="#404756" d="M-3.723,662.375c-5.318,0-7.688-5.418-7.688-10.836c0-5.7,2.791-10.617,8.149-10.617h0.14
				h0.142c5.196,0,7.786,5.258,7.786,10.656c0,5.74-2.869,10.777-8.248,10.777h-0.141h-0.142 M-3.342,659.747
				c1.746-0.06,3.133-1.144,3.936-2.95c0.722-1.626,0.883-3.472,0.883-5.257c0-1.927-0.201-3.954-1.123-5.62
				c-0.823-1.446-2.208-2.369-3.694-2.429c-1.645,0.06-3.13,1.184-3.872,2.91c-0.662,1.486-0.883,3.472-0.883,5.139
				c0,1.866,0.241,4.014,1.003,5.619C-6.33,658.683-4.907,659.688-3.342,659.747"/>
			<path id="path26" fill="#404756" d="M-20.32,659.667c2.388-0.081,3.633-1.987,4.153-4.456c0.102-0.301,0.342-0.542,0.684-0.542
				h1.564c0.381,0.02,0.724,0.302,0.683,0.643c-0.724,4.213-3.271,7.063-6.884,7.063h-0.141h-0.142
				c-5.277,0-7.546-5.297-7.546-10.657c0-5.338,2.309-10.776,7.587-10.776h0.141h0.14c3.653,0,6.283,2.831,6.845,7.044
				c0,0.322-0.302,0.582-0.642,0.622l-1.646-0.02c-0.342-0.04-0.582-0.341-0.622-0.683c-0.401-2.348-1.746-4.234-3.994-4.294
				c-3.592,0.12-4.596,4.515-4.596,7.928C-24.754,654.77-23.913,659.546-20.32,659.667"/>
			<path id="path28" fill="#404756" d="M-95.237,652.782c0,1.466,0.04,2.669-0.703,3.975c-0.603,1.043-1.546,1.706-2.589,1.706
				c-1.445,0-2.288-1.104-2.288-2.709c0-3.19,2.849-3.772,5.559-3.772L-95.237,652.782 M-91.464,661.914
				c-0.241,0.221-0.603,0.242-0.883,0.081c-1.244-1.024-1.464-1.505-2.147-2.488c-2.048,2.086-3.512,2.729-6.162,2.729
				c-3.151,0-5.599-1.947-5.599-5.821c0-3.03,1.646-5.097,3.994-6.121c2.027-0.903,4.876-1.044,7.043-1.305v-0.481
				c0-0.883,0.061-1.947-0.461-2.71c-0.462-0.682-1.324-0.983-2.108-0.983c-1.424,0-2.689,0.723-3.01,2.248
				c-0.06,0.341-0.301,0.663-0.663,0.683l-3.632-0.381c-0.301-0.061-0.642-0.321-0.562-0.782c0.823-4.396,4.816-5.72,8.369-5.72
				c1.827,0,4.194,0.481,5.64,1.865c1.826,1.707,1.646,3.974,1.646,6.442v5.82c0,1.746,0.722,2.53,1.405,3.472
				c0.24,0.341,0.281,0.743-0.021,1.004C-89.358,660.068-90.722,661.252-91.464,661.914L-91.464,661.914"/>
			<path id="path30" fill="#404756" d="M-144.286,652.782c0,1.466,0.04,2.669-0.703,3.975c-0.602,1.043-1.545,1.706-2.589,1.706
				c-1.444,0-2.267-1.104-2.267-2.709c0-3.19,2.849-3.772,5.559-3.772V652.782 M-140.513,661.914
				c-0.242,0.221-0.602,0.242-0.883,0.081c-1.245-1.024-1.464-1.505-2.148-2.488c-2.046,2.086-3.512,2.729-6.161,2.729
				c-3.151,0-5.6-1.947-5.6-5.821c0-3.03,1.646-5.097,3.994-6.121c2.027-0.903,4.877-1.044,7.044-1.305v-0.481
				c0-0.883,0.06-1.947-0.462-2.71c-0.461-0.682-1.324-0.983-2.107-0.983c-1.425,0-2.689,0.723-3.01,2.248
				c-0.061,0.341-0.302,0.663-0.644,0.683l-3.632-0.381c-0.301-0.061-0.642-0.321-0.562-0.782c0.843-4.396,4.816-5.72,8.369-5.72
				c1.826,0,4.194,0.481,5.639,1.865c1.827,1.707,1.646,3.974,1.646,6.442v5.82c0,1.746,0.723,2.53,1.405,3.472
				c0.241,0.341,0.302,0.743-0.02,1.004C-138.406,660.068-139.751,661.252-140.513,661.914L-140.513,661.914"/>
			<path id="path32" fill="#404756" d="M34.89,641.644c0.902,0,1.646,0.723,1.646,1.646c0,0.902-0.742,1.646-1.646,1.646
				s-1.645-0.743-1.645-1.646C33.246,642.367,34.007,641.644,34.89,641.644 M34.89,641.324c-1.043,0-1.967,0.843-1.967,1.966
				c0,1.084,0.902,1.967,1.967,1.967s1.967-0.883,1.967-1.967C36.857,642.187,35.955,641.324,34.89,641.324 M34.17,644.394h0.42
				v-0.883h0.381c0.16,0,0.201,0.061,0.222,0.181c0,0.04,0.08,0.581,0.08,0.702h0.462c-0.061-0.1-0.08-0.402-0.12-0.583
				c-0.04-0.279-0.062-0.48-0.36-0.5c0.16-0.061,0.42-0.141,0.42-0.542c0-0.582-0.502-0.582-0.781-0.582H34.15v2.208 M34.57,642.547
				h0.361c0.119,0,0.32,0,0.32,0.301c0,0.121-0.062,0.301-0.343,0.301h-0.34L34.57,642.547"/>
		</g>
	</g>
	<path fill="#FFFFFF" d="M63.36,16.99c0,1.466,0.041,2.669-0.703,3.975c-0.603,1.043-1.545,1.706-2.589,1.706
		c-1.445,0-2.287-1.104-2.287-2.709c0-3.191,2.849-3.773,5.559-3.773L63.36,16.99"/>
	<path fill="#FFFFFF" d="M14.392,16.99c0,1.466,0.04,2.669-0.702,3.975c-0.602,1.043-1.545,1.706-2.589,1.706
		c-1.446,0-2.289-1.104-2.289-2.709c0-3.191,2.851-3.773,5.56-3.773L14.392,16.99"/>
</g>
</svg>
