<?xml version="1.0" encoding="utf-8"?>
<!-- Generator: Adobe Illustrator 18.1.1, SVG Export Plug-In . SVG Version: 6.00 Build 0)  -->
<svg version="1.1" id="Layer_1" xmlns="http://www.w3.org/2000/svg" xmlns:xlink="http://www.w3.org/1999/xlink" x="0px" y="0px"
	 viewBox="-99 -12.7 300 97" enable-background="new -99 -12.7 300 97" xml:space="preserve">
<path id="Bed_Bath__x26__Beyond" fill="#404756" d="M-94.3,46.5h15.8c7.2,0,14.6,1.6,14.6,9.4c0,3-1.6,5.9-4.9,6.8V63
	c4,1.3,6.6,4,6.6,8c0,7-7.1,9.3-13.6,9.3h-18.4V46.5 M-80.5,59.6c2,0,4.2-0.2,4.2-2.5c0-2.5-2.5-2.3-4.5-2.3h-0.9v4.9H-80.5z
	 M-81.8,72.3h1.5c2.2,0,5.4,0,5.4-2.8c0-2.8-3.4-2.8-5.6-2.8h-1.3V72.3z M-60.1,46.5v33.9h27.8v-9.2h-12.9v-3.3h11.4V59h-11.4v-3.2
	h12.5v-9.2L-60.1,46.5 M-13.6,46.5h-18.8l15.9,19.3v14.6h16.3V65.8l15.6-19.3H-3.2l-3.3,5.7c-0.6,1-1,2.1-1.5,3.2h-0.5L-13.6,46.5
	 M62.5,63.6c0,10.9-12.2,17.4-27.2,17.4c-15,0-27.2-6.5-27.2-17.4C8.1,52.9,20.4,46,35.3,46C50.2,46,62.5,52.9,62.5,63.6 M26.1,63.7
	c0,3.9,3.8,6.5,9.2,6.5c5.4,0,9.2-2.6,9.2-6.5c0-3.6-3.5-6.6-9.2-6.6S26.1,60.2,26.1,63.7z M120.3,46.5h28.2
	c25.6,0,45.2,5,45.2,17.4c0,10.1-16,16.4-38.3,16.4h-35L120.3,46.5 M148,70.3h1.7c9.2,0,16.3-1.9,16.3-6.3c0-4.8-6.2-6.8-16.3-6.8
	H148V70.3z M187.7,46.9c0-2.5,2-4.5,4.5-4.5c2.5,0,4.5,2,4.5,4.5c0,2.5-2,4.5-4.5,4.5C189.7,51.4,187.7,49.4,187.7,46.9 M196,46.9
	c0-2.1-1.8-3.8-3.8-3.8c-2.1,0-3.8,1.7-3.8,3.8c0,2.1,1.8,3.8,3.8,3.8C194.3,50.7,196,49,196,46.9z M194.4,49.4h-0.8l-1.5-2.3h-0.8
	v2.3h-0.7v-4.9h2.2c0.9,0,1.8,0.2,1.8,1.3c0,1-0.7,1.3-1.5,1.4L194.4,49.4z M192,46.4c0.6,0,1.7,0.1,1.7-0.7c0-0.5-0.7-0.6-1.2-0.6
	h-1.3v1.3L192,46.4L192,46.4z M83,46.6H64.6v33.9h18.2V63.2l16.2,17.2h18.2V46.6H99.1v17.5L83,46.6 M-94.4-8h5.5
	c8.4,0,16.4,2.2,16.4,12.3c0,3.3-1.8,7.1-4.8,8.5V13c5.3,1,9,6.1,9,11.4c0,9-7.7,12.5-15.6,12.5h-10.5V-8 M-88.8,11.9h1.4
	c5.3,0,9.6-1.1,9.6-7.5c0-6.3-4.3-7.4-9.5-7.4h-1.5C-88.8-2.9-88.8,11.9-88.8,11.9z M-88.8,31.9h4.3c5.2,0,10.6-1.5,10.6-7.9
	c0-6.3-6.4-7.6-11.4-7.6h-3.4C-88.8,16.4-88.8,31.9-88.8,31.9z M-65.1-8v44.8H-41v-5.1h-18.5V14.8h18V9.7h-18V-2.8H-41V-8H-65.1
	 M-35.8-8h9.3C-12.8-8-1.4-0.7-1.4,14.2c0,15.3-11.2,22.6-25.3,22.6h-9.1L-35.8-8 M-30.2,31.8h2c11.4,0,21.3-4.3,21.3-17.3
	c0-13.1-9.9-17.3-21.3-17.3h-2C-30.2-2.8-30.2,31.8-30.2,31.8z M14.4-8h5.5c8.5,0,16.4,2.2,16.4,12.3c0,3.3-1.8,7.1-4.8,8.5V13
	c5.3,1,9,6.1,9,11.4c0,9-7.7,12.5-15.6,12.5H14.4V-8 M20,11.9h1.4c5.3,0,9.6-1.1,9.6-7.5c0-6.3-4.3-7.4-9.5-7.4H20L20,11.9L20,11.9z
	 M20,31.9h4.3c5.2,0,10.6-1.5,10.6-7.9c0-6.3-6.4-7.6-11.4-7.6H20C20,16.4,20,31.9,20,31.9z M51.2,25.6l-5.1,11.2h-6L61.5-9.9
	l21.4,46.7h-6l-5.1-11.2L51.2,25.6 M61.5,2.4l-8,18.1h16L61.5,2.4z M92.8,36.9V-2.8h10.6V-8H76.6v5.1h10.6v39.7H92.8 M133.4,10.1
	h-21.3V-8h-5.6v44.8h5.6V15.4h21.3v21.5h5.6V-8h-5.6V10.1 M180.8,30.8c-3.4,4-8.1,7-13.4,7c-7.5,0-13.7-5.5-13.7-13.2
	c0-5.7,3.6-8.8,7.8-11.9l2.8-2c-2.5-2.7-4.9-6-4.9-9.8c0-6.2,4.5-9.8,10.3-9.8c5.5,0,10.3,3.4,10.3,9.3c0,5.1-4.4,8.4-8.2,11.2
	l9.4,11.3l5.2-6.1l3.6,3.7l-5.5,6.4l8,9.9h-6.9L180.8,30.8 M167,15.1c-3.1,2.1-8.2,5.2-8.2,9.4c0,4.3,4,8.3,8.3,8.3
	c4.2,0,7.5-3.2,10.3-6l-9.9-12.1L167,15.1z M169.4,7.3c2.3-1.8,5.4-3.6,5.4-6.9c0-3.1-2.3-4.9-5.2-4.9c-2.7,0-5,1.9-5,4.8
	c0,2.3,1.4,3.9,2.7,5.6l1.5,1.9L169.4,7.3z"/>
</svg>
