<?xml version="1.0" encoding="utf-8"?>
<!-- Generator: Adobe Illustrator 16.0.0, SVG Export Plug-In . SVG Version: 6.00 Build 0)  -->
<!DOCTYPE svg PUBLIC "-//W3C//DTD SVG 1.1//EN" "http://www.w3.org/Graphics/SVG/1.1/DTD/svg11.dtd">
<svg version="1.1" id="Layer_1" xmlns="http://www.w3.org/2000/svg" xmlns:xlink="http://www.w3.org/1999/xlink" x="0px" y="0px"
	 width="200px" height="46px" viewBox="0 0 200 46" enable-background="new 0 0 200 46" xml:space="preserve">
<g>
	<g id="g10" transform="matrix(1.25,0,0,-1.25,-228.89857,946.53091)">
		<path id="path364" fill="#404756" d="M187.8,750.318h10.289v-6.989h0.067l7.846,6.989h11.535l-9.464-8.571l10.95-11.762h-13.021
			l-7.846,8.323h-0.067v-8.323H187.8V750.318z"/>
		<path id="path370" fill="#404756" d="M233.891,733.513c4.576,0,4.273,5.105,4.273,6.791c0,1.687,0.051,6.365-4.273,6.365
			c-4.328,0-4.276-4.678-4.276-6.365C229.615,738.618,229.31,733.513,233.891,733.513 M233.891,750.883
			c11.682,0,14.86-2.45,14.86-10.793c0-8.344-3.178-10.793-14.86-10.793c-11.685,0-14.863,2.449-14.863,10.793
			C219.028,748.433,222.206,750.883,233.891,750.883"/>
		<path id="path376" fill="#404756" d="M270.941,737.621v-7.771h10.564v20.331h-10.564v-6.988h-7.579v6.988h-10.566V729.85h10.566
			v7.771H270.941z"/>
		<path id="path382" fill="#404756" d="M286.499,750.179h10.809v-15.491c0,0,8.627-0.025,9.774-0.025
			c1.147,0,1.825,1.029,1.825,1.029v-5.842h-22.409V750.179z"/>
		<path id="path396" fill="#404756" d="M334.109,743.449c-2.236,1.79-4.152,2.392-6.213,2.425c-2.014,0.035-3.854-0.666-3.854-1.891
			c0-0.968,1.375-1.37,6.186-2.371c3.953-0.828,6.586-2.846,6.586-6.605c0-4.242-7.058-6.641-13.371-6.641
			c-4.432,0-7.834,0.798-10.878,2.164v5.694c1.881-1.963,6.092-3.005,9.318-3.005c1.789,0,2.667,0.263,2.667,1.687
			c0,0.88-1.116,1.684-4.494,2.302c-6.402,1.173-8.563,3.005-8.563,6.138c0,4.498,5.595,7.176,12.487,7.176
			c3.716,0,7.128-0.114,10.13-1.51V743.449L334.109,743.449z"/>
		<path id="path402" fill="#404756" d="M302.891,741.886l0.739,1.306c-2.227,1.102-2.884,3.905-1.753,5.503
			c1.217,1.72,4.595,2.456,6.42-0.206c1.553-2.271,0.066-4.196-0.608-4.747C307.014,743.192,302.891,741.886,302.891,741.886"/>
	</g>
</g>
</svg>
