<?xml version="1.0" encoding="utf-8"?>
<!-- Generator: Adobe Illustrator 16.0.0, SVG Export Plug-In . SVG Version: 6.00 Build 0)  -->
<!DOCTYPE svg PUBLIC "-//W3C//DTD SVG 1.1//EN" "http://www.w3.org/Graphics/SVG/1.1/DTD/svg11.dtd">
<svg version="1.1" id="Layer_1" xmlns="http://www.w3.org/2000/svg" xmlns:xlink="http://www.w3.org/1999/xlink" x="0px" y="0px"
	 width="200px" height="200px" viewBox="0 0 200 200" enable-background="new 0 0 200 200" xml:space="preserve">
<g>
	<g>
		<g>
			<path fill="#404756" d="M100.321,127.675C68.677,127.675,43,105.27,43,77.611c0-27.708,25.677-50.096,57.321-50.096
				c31.669,0,57.316,22.388,57.316,50.096C157.639,105.27,131.99,127.675,100.321,127.675 M100.321,2.5
				c-47.435,0-85.902,33.625-85.902,75.111c0,41.456,38.468,75.069,85.902,75.069c47.455,0,85.984-33.613,85.984-75.069
				C186.307,36.125,147.775,2.5,100.321,2.5z"/>
			<path fill="#404756" d="M100.321,51.875c-16.26,0-29.434,11.486-29.434,25.737c0,14.206,13.174,25.726,29.434,25.726
				c16.275,0,29.478-11.52,29.478-25.726C129.799,63.36,116.596,51.875,100.321,51.875"/>
			<polyline fill="#404756" points="22.628,172.271 13.152,172.271 13.152,167.161 39.054,167.161 39.054,172.271 29.578,172.271 
				29.578,194.79 22.628,194.79 22.628,172.271 			"/>
			<path fill="#404756" d="M36.042,194.79h7.037l2.482-6.151h11.823l2.39,6.151h7.218l-11.823-27.629h-7.126L36.042,194.79
				 M51.496,173.967h0.086l3.982,10.141h-8.182L51.496,173.967z"/>
			<path fill="#404756" d="M69.733,194.79h6.956v-10.793h6.947c3.5,0,4.781,1.274,5.268,4.173c0.358,2.209,0.27,4.878,1.11,6.62
				h6.947c-1.237-1.547-1.191-4.802-1.327-6.541c-0.221-2.791-1.193-5.688-4.605-6.463v-0.078c3.503-1.233,5.008-3.67,5.008-6.926
				c0-4.177-3.59-7.62-9.257-7.62H69.733V194.79 M76.689,171.882h7.617c3.093,0,4.778,1.159,4.778,3.828
				c0,2.785-1.685,3.949-4.778,3.949h-7.617V171.882z"/>
			<path fill="#404756" d="M123.662,191.654c-2.436,2.753-5.62,3.801-8.676,3.801c-9.783,0-15.543-6.396-15.543-14.367
				c0-8.197,5.757-14.584,15.543-14.584c6.464,0,12.572,3.482,13.328,9.746h-6.646c-0.799-3.059-3.412-4.639-6.683-4.639
				c-6.245,0-8.596,4.639-8.596,9.477c0,4.607,2.351,9.249,8.596,9.249c4.516,0,7.123-2.127,7.521-5.962h-6.99v-4.521h13.279v14.938
				h-4.43L123.662,191.654"/>
			<polyline fill="#404756" points="133.539,167.161 157.173,167.161 157.173,172.271 140.488,172.271 140.488,178.189 
				155.805,178.189 155.805,182.913 140.488,182.913 140.488,189.682 157.529,189.682 157.529,194.79 133.539,194.79 
				133.539,167.161 			"/>
			<polyline fill="#404756" points="170.104,172.271 160.63,172.271 160.63,167.161 186.535,167.161 186.535,172.271 
				177.057,172.271 177.057,194.79 170.104,194.79 170.104,172.271 			"/>
		</g>
	</g>
</g>
</svg>
