<?xml version="1.0" encoding="utf-8"?>
<!-- Generator: Adobe Illustrator 18.1.1, SVG Export Plug-In . SVG Version: 6.00 Build 0)  -->
<svg version="1.1" id="Layer_1" xmlns="http://www.w3.org/2000/svg" xmlns:xlink="http://www.w3.org/1999/xlink" x="0px" y="0px"
	 viewBox="0 0 500 100" enable-background="new 0 0 500 100" xml:space="preserve">
<g>
	<path fill="#FFFFFF" d="M12.6,8.7h6.3v38h6.2l13.8-38h6.3L30.1,49.8l15.2,41.3h-6.3l-13.8-38h-6.2v38.2h-6.3V8.7z"/>
	<path fill="#FFFFFF" d="M84.4,91.3h-6.3l-3.3-21.2H57.9l-3.2,21.2h-6.3L61.1,8.7h10.8L84.4,91.3z M59.1,63.8h14.8l-7.2-48h-0.2
		L59.1,63.8z"/>
	<path fill="#FFFFFF" d="M114.9,15.2h-11.3v76.2h-6.5V15.2H85.6V8.8h29.3C114.9,8.8,114.9,15.2,114.9,15.2z"/>
	<path fill="#FFFFFF" d="M129.7,15.2v31.7h14.8v6.5h-14.8V85h21v6.3h-27.3V8.7h26.5V15h-20.2V15.2z"/>
	<path fill="#FFFFFF" d="M204.4,49.8v6.3h-12.2v12.2h-6.3V56.2h-12v-6.3h12.2V37.7h6.3v12.2H204.4z"/>
	<path fill="#FFFFFF" d="M261.1,91.3h-6.3l-3.3-21.2h-16.7l-3.2,21.2h-6.3l12.7-82.7h10.7L261.1,91.3z M235.7,63.8h14.8l-7.2-48
		h-0.2L235.7,63.8z"/>
	<path fill="#FFFFFF" d="M268.9,8.7h7.7l19.5,62.7h0.2V8.7h6.3v82.7h-6.3l-20.8-66h-0.2v66h-6.3V8.7z"/>
	<path fill="#FFFFFF" d="M346.6,74.2c0,9.5-7.7,17.2-17.2,17.2h-14.7V8.7h14.7c9.5,0,17.2,7.7,17.2,17.2V74.2z M340.2,25.8
		c0-6-4.8-10.8-10.8-10.8h-8.3v69.8h8.3c6,0,10.8-4.8,10.8-10.8V25.8z"/>
	<path fill="#FFFFFF" d="M389.2,91.3h-6.3V64c0-6-4.8-10.8-10.8-10.8h-7.7v38.2h-6.3V8.7h14c9.5,0,17.2,7.7,17.2,17.2V36
		c0,5.8-3,10.8-7.2,14c4.3,3.2,7.2,8.2,7.2,14V91.3z M372.1,46.8c6,0,10.8-4.8,10.8-10.8V25.8c0-6-4.8-10.8-10.8-10.8h-7.7v31.7h7.7
		V46.8z"/>
	<path fill="#FFFFFF" d="M406.4,15.2v31.7h14.8v6.5h-14.8V85h21v6.3h-27.3V8.7h26.5V15h-20.2V15.2z"/>
	<path fill="#FFFFFF" d="M473.1,91.3h-7.7l-5.8-32.5h-0.2l-5.8,32.5h-7.7L431.1,8.7h6.3L449.6,77h0.2l6.3-36l-5.8-32.3h6.3L468.8,77
		h0.2l12.2-68.3h6.3L473.1,91.3z"/>
</g>
</svg>
