<?xml version="1.0" encoding="utf-8"?>
<!-- Generator: Adobe Illustrator 16.0.0, SVG Export Plug-In . SVG Version: 6.00 Build 0)  -->
<!DOCTYPE svg PUBLIC "-//W3C//DTD SVG 1.1//EN" "http://www.w3.org/Graphics/SVG/1.1/DTD/svg11.dtd">
<svg version="1.1" id="Layer_1" xmlns="http://www.w3.org/2000/svg" xmlns:xlink="http://www.w3.org/1999/xlink" x="0px" y="0px"
	 width="300px" height="57.75px" viewBox="0 0 300 57.75" enable-background="new 0 0 300 57.75" xml:space="preserve">
<g>
	<path fill="#FFFFFF" d="M26.531,54.025h-3.868l-2.009-12.87H10.463l-1.934,12.87H4.661l7.662-50.212h6.546L26.531,54.025z
		 M11.059,37.288h9.001L15.67,8.128h-0.149L11.059,37.288z"/>
	<path fill="#FFFFFF" d="M31.218,3.813h4.686l11.828,38.085h0.149V3.813h3.868v50.212h-3.868l-12.646-40.17h-0.149v40.17h-3.868
		V3.813z"/>
	<path fill="#FFFFFF" d="M78.53,43.61c0,5.728-4.686,10.415-10.414,10.415h-8.926V3.813h8.926c5.728,0,10.414,4.687,10.414,10.414
		V43.61z M74.662,14.228c0-3.645-2.901-6.546-6.546-6.546h-5.058v42.475h5.058c3.645,0,6.546-2.9,6.546-6.546V14.228z"/>
	<path fill="#FFFFFF" d="M104.418,54.025h-3.868V37.362c0-3.644-2.901-6.545-6.546-6.545h-4.687v23.209h-3.868V3.813h8.555
		c5.728,0,10.414,4.687,10.414,10.414v6.175c0,3.496-1.785,6.62-4.389,8.479c2.604,1.935,4.389,4.983,4.389,8.48V54.025z
		 M94.004,26.948c3.645,0,6.546-2.901,6.546-6.546v-6.175c0-3.645-2.901-6.546-6.546-6.546h-4.687v19.267H94.004z"/>
	<path fill="#FFFFFF" d="M114.908,7.682v19.267h9v3.942h-9v19.266h12.795v3.869H111.04V3.813h16.067v3.868H114.908z"/>
	<path fill="#FFFFFF" d="M155.375,54.025h-4.611l-3.496-19.713h-0.148l-3.497,19.713h-4.612l-9.001-50.212h3.868l7.365,41.508h0.148
		l3.869-21.869l-3.497-19.639h3.868l7.364,41.508h0.149l7.363-41.508h3.868L155.375,54.025z"/>
	<path fill="#FFFFFF" d="M195.251,28.808v3.868h-7.365v7.364h-3.868v-7.364h-7.365v-3.868h7.365v-7.365h3.868v7.365H195.251z"/>
	<path fill="#FFFFFF" d="M211.468,3.813h3.867v23.135h3.72l8.405-23.135h3.869l-9.225,25.068l9.225,25.144h-3.869l-8.405-23.209
		h-3.72v23.209h-3.867V3.813z"/>
	<path fill="#FFFFFF" d="M255.133,54.025h-3.869l-2.009-12.87h-10.189l-1.935,12.87h-3.867l7.66-50.212h6.546L255.133,54.025z
		 M239.66,37.288h9.001l-4.389-29.159h-0.149L239.66,37.288z"/>
	<path fill="#FFFFFF" d="M273.657,7.682h-6.919v46.344h-3.943V7.682h-6.992V3.813h17.854V7.682z"/>
	<path fill="#FFFFFF" d="M282.659,7.682v19.267h9v3.942h-9v19.266h12.795v3.869H278.79V3.813h16.068v3.868H282.659z"/>
</g>
</svg>
