<?xml version="1.0" encoding="utf-8"?>
<!-- Generator: Adobe Illustrator 18.1.1, SVG Export Plug-In . SVG Version: 6.00 Build 0)  -->
<svg version="1.1" id="Layer_1" xmlns="http://www.w3.org/2000/svg" xmlns:xlink="http://www.w3.org/1999/xlink" x="0px" y="0px"
	 viewBox="-99 22.2 300 57.8" enable-background="new -99 22.2 300 57.8" xml:space="preserve">
<g>
	<path fill="#FFFFFF" d="M-96,25.6h3.9v23.5h3.8l8.6-23.5h3.9l-9.4,25.5l9.4,25.6h-3.9l-8.6-23.6H-92v23.6H-96V25.6z"/>
	<path fill="#FFFFFF" d="M-51.5,76.7h-3.9l-2-13.1h-10.4l-2,13.1h-3.9l7.8-51.1h6.7L-51.5,76.7z M-67.3,59.6h9.2L-62.6,30h-0.2
		L-67.3,59.6z"/>
	<path fill="#FFFFFF" d="M-32.7,29.5h-7v47.2h-4V29.5h-7.1v-3.9h18.2V29.5z"/>
	<path fill="#FFFFFF" d="M-23.5,29.5v19.6h9.2v4h-9.2v19.6h13v3.9h-17V25.6h16.3v3.9H-23.5z"/>
	<path fill="#FFFFFF" d="M22.7,51v3.9h-7.5v7.5h-3.9v-7.5H3.8V51h7.5v-7.5h3.9V51H22.7z"/>
	<path fill="#FFFFFF" d="M57.7,76.7h-3.9l-2-13.1H41.4l-2,13.1h-3.9l7.8-51.1h6.7L57.7,76.7z M42,59.6h9.2L46.7,30h-0.2L42,59.6z"/>
	<path fill="#FFFFFF" d="M62.5,25.6h4.8l12,38.8h0.2V25.6h3.9v51.1h-3.9L66.6,35.8h-0.2v40.9h-3.9V25.6z"/>
	<path fill="#FFFFFF" d="M110.6,66.1c0,5.8-4.8,10.6-10.6,10.6H91V25.6h9.1c5.8,0,10.6,4.8,10.6,10.6V66.1z M106.7,36.2
		c0-3.7-3-6.7-6.7-6.7h-5.1v43.2h5.1c3.7,0,6.7-3,6.7-6.7V36.2z"/>
	<path fill="#FFFFFF" d="M137,76.7H133v-17c0-3.7-3-6.7-6.7-6.7h-4.8v23.6h-3.9V25.6h8.7c5.8,0,10.6,4.8,10.6,10.6v6.3
		c0,3.6-1.8,6.7-4.5,8.6c2.6,2,4.5,5.1,4.5,8.6V76.7z M126.4,49.1c3.7,0,6.7-3,6.7-6.7v-6.3c0-3.7-3-6.7-6.7-6.7h-4.8v19.6H126.4z"
		/>
	<path fill="#FFFFFF" d="M147.6,29.5v19.6h9.2v4h-9.2v19.6h13v3.9h-17V25.6h16.3v3.9H147.6z"/>
	<path fill="#FFFFFF" d="M188.8,76.7h-4.7l-3.6-20.1h-0.2l-3.6,20.1h-4.7L163,25.6h3.9l7.5,42.2h0.2l3.9-22.3l-3.6-20h3.9l7.5,42.2
		h0.2l7.5-42.2h3.9L188.8,76.7z"/>
</g>
</svg>
