<?xml version="1.0" encoding="utf-8"?>
<!-- Generator: Adobe Illustrator 18.1.1, SVG Export Plug-In . SVG Version: 6.00 Build 0)  -->
<svg version="1.1" id="Layer_1" xmlns="http://www.w3.org/2000/svg" xmlns:xlink="http://www.w3.org/1999/xlink" x="0px" y="0px"
	 viewBox="-99 22.2 300 57.8" enable-background="new -99 22.2 300 57.8" xml:space="preserve">
<g>
	<path fill="#FFFFFF" d="M-91.6,26.3h3.8v22.8h3.7l8.3-22.8h3.8l-9.1,24.7l9.1,24.8h-3.8L-84.1,53h-3.7v22.9h-3.8V26.3z"/>
	<path fill="#FFFFFF" d="M-48.5,75.9h-3.8l-2-12.7h-10.1l-1.9,12.7h-3.8l7.6-49.6h6.5L-48.5,75.9z M-63.7,59.4h8.9l-4.3-28.8h-0.1
		L-63.7,59.4z"/>
	<path fill="#FFFFFF" d="M-30.2,30.2H-37v45.7h-3.9V30.2h-6.9v-3.8h17.6V30.2z"/>
	<path fill="#FFFFFF" d="M-21.3,30.2v19h8.9v3.9h-8.9v19h12.6v3.8h-16.4V26.3h15.9v3.8H-21.3z"/>
	<path fill="#FFFFFF" d="M23.5,51v3.8h-7.3v7.3h-3.8v-7.3H5.2V51h7.3v-7.3h3.8V51H23.5z"/>
	<path fill="#FFFFFF" d="M57.5,75.9h-3.8l-2-12.7H41.7l-1.9,12.7H36l7.6-49.6H50L57.5,75.9z M42.3,59.4h8.9l-4.3-28.8h-0.1
		L42.3,59.4z"/>
	<path fill="#FFFFFF" d="M62.2,26.3h4.6l11.7,37.6h0.1V26.3h3.8v49.6h-3.8L66.1,36.3H66v39.6h-3.8V26.3z"/>
	<path fill="#FFFFFF" d="M108.8,65.6c0,5.7-4.6,10.3-10.3,10.3h-8.8V26.3h8.8c5.7,0,10.3,4.6,10.3,10.3V65.6z M105,36.6
		c0-3.6-2.9-6.5-6.5-6.5h-5v41.9h5c3.6,0,6.5-2.9,6.5-6.5V36.6z"/>
	<path fill="#FFFFFF" d="M134.4,75.9h-3.8V59.5c0-3.6-2.9-6.5-6.5-6.5h-4.6v22.9h-3.8V26.3h8.4c5.7,0,10.3,4.6,10.3,10.3v6.1
		c0,3.5-1.8,6.5-4.3,8.4c2.6,1.9,4.3,4.9,4.3,8.4V75.9z M124.1,49.2c3.6,0,6.5-2.9,6.5-6.5v-6.1c0-3.6-2.9-6.5-6.5-6.5h-4.6v19
		H124.1z"/>
	<path fill="#FFFFFF" d="M144.7,30.2v19h8.9v3.9h-8.9v19h12.6v3.8h-16.4V26.3h15.9v3.8H144.7z"/>
	<path fill="#FFFFFF" d="M184.7,75.9h-4.6l-3.5-19.5h-0.1l-3.5,19.5h-4.6l-8.9-49.6h3.8l7.3,41h0.1l3.8-21.6l-3.5-19.4h3.8l7.3,41
		h0.1l7.3-41h3.8L184.7,75.9z"/>
</g>
</svg>
