<?xml version="1.0" encoding="utf-8"?>
<!-- Generator: Adobe Illustrator 18.1.1, SVG Export Plug-In . SVG Version: 6.00 Build 0)  -->
<svg version="1.1" id="Layer_1" xmlns="http://www.w3.org/2000/svg" xmlns:xlink="http://www.w3.org/1999/xlink" x="0px" y="0px"
	 viewBox="31 156.9 462.1 89.1" enable-background="new 31 156.9 462.1 89.1" xml:space="preserve">
<g enable-background="new    ">
	<path fill="#6D6D6D" d="M72.3,172c4.4,0,8.2,4.8,11.3,14.4l0.5,0.4v0.4l-0.5,2.5c0.9,0,1.7,1.6,2.5,4.7c1.3,0.9,2.8,1.3,4.4,1.3
		l0.5,0.4v0.4c0,0.6-0.8,0.9-2.4,0.9v0.4l1,3.4l-0.5-0.4h-0.5v0.9h0.5l0.5-0.4h0.5c0.4,2.5,0.9,3.8,1.5,3.8l-0.5,0.4v0.9h0.5v-0.9h1
		l2,5.1l-0.5,0.4c0.9,0,1.7,0.7,2.4,2.1l-0.5,0.4v0.4c2,1.9,3,4,3,6.4l-2.5,3.4h-1c-4.5-1.1-6.8-2.1-6.9-3c3-0.6,4.4-1.2,4.4-1.7
		c0-1.1-3-7.3-8.9-18.7c-0.5,0-1-0.6-1.5-1.7c-2,0-3,0.4-3,1.3l-0.5-0.4h-0.5l-2,1.7l-0.5-0.4h-0.5c-2.9,0.6-5.2,1.4-6.9,2.5
		l-1.5-0.4c-0.5,0.8-2.7,1.9-6.4,3.4l-2.5,6.3l0.5,0.4h0.5l-1.5,2.6l0.5,0.4v0.4c-1,3.8-2,6.2-3,7.2c0,0.8-0.3,1.2-1,1.2l1.5,6.8
		l-2.5,1.3c-2.6-0.2-4-1.2-4-3c0-2.9,0.8-7.4,2.5-13.5c-6.6-0.5-9.9-2.3-9.9-5.5v-0.9c2.4-1.7,7.2-4.3,14.3-7.7
		C62.6,182.2,67.8,172,72.3,172z M51.1,212.4v0.9h2.5l0.5-2.5h-0.5L51.1,212.4z M73.3,177.1l-5.9,7.6l0.5,0.4v0.4l-0.5,0.4h-0.5
		l-0.5-0.4v0.4l0.5,1.7h-0.5l0.5,0.4v0.8l-1,0.9v-2.1h-0.5l-1.5,4.7v0.4h0.5V192h0.5v0.9c-0.3,1.7-0.8,2.5-1.5,2.5l-0.5-0.4l0.5,3
		v2.1l7.4-2.1l0.5,0.4h0.5l6.9-2.1l1.5,0.4l0.5-0.4l0.5,0.4l0.5-0.4v-0.4c0-2.4-2.6-8.6-7.9-18.7H73.3z"/>
	<path fill="#6D6D6D" d="M101,199.9h1.6c1.7,1.4,2.5,2.8,2.5,4.3l-0.4,1.9l0.4,8.5h0.4c3.2-7.6,6.1-11.4,8.6-11.4
		c2,0,3.9,4.4,5.7,13.3c1.3,2.9,2.8,4.3,4.5,4.3l1.7-0.5l1.6,1.4v1.9c0,1.1-1.5,1.9-4.5,2.3h-1.6c-2-1-3.7-2.9-5.3-5.7
		c-1-1.8-1.9-5-2.9-9.5c-0.4,0-1.4,1.7-2.9,5.2c-3.3,5.4-5.7,8.1-7.4,8.1c-2,0-3.1-2.8-3.3-8.5v-14.3L101,199.9z"/>
	<path fill="#6D6D6D" d="M146.3,168.8h0.9c4.5,0,8,7.3,10.5,22c0,16.2-6.5,27.2-19.6,32.9l-4.4,0.5c-5-0.8-7.4-3.6-7.4-8.3v-1
		c0-5.4,3.6-10,10.9-13.6h2.2l2.2,2.6v2.1c-6.4,2.7-9.6,6-9.6,9.9v1l1.3,1.6h1.7c4.8,0,10.2-5.2,16.2-15.7c1.1-3.9,1.7-7.7,1.7-11.5
		c0-8.9-2.5-14.6-7.4-17.3l-0.4-2.1C145.3,169.8,145.8,168.8,146.3,168.8z"/>
	<path fill="#6D6D6D" d="M173.8,199.5c3.3,0.6,4.9,2.2,4.9,4.7c-0.6,1.4-1.3,2.2-2,2.3l-2-0.4l-7.9,17.6l-3.4,0.4h-1
		c-3.3-3-4.9-7.3-4.9-13v-1.9c0-3.4,0.5-5.1,1.5-5.1h1.5c1.9,0,3,3.6,3.4,10.7h0.5C167.8,204.7,170.9,199.5,173.8,199.5z"/>
	<path fill="#6D6D6D" d="M193.1,200.5h2c1.9,0,3.3,1,4.4,2.9v2.5c0,1.5-1.5,4.4-4.4,8.7c0,1.9-0.5,2.9-1.5,2.9h-1.5l-2.9-2.5v-0.4
		c0-1.1,1.5-4,4.4-8.7v-0.4c-5.5,3.9-8.3,7.6-8.3,11.2v0.4c0,1.5,0.7,2.5,2,2.9h2c2.1,0,8.5-1.4,19.1-4.1h1v0.9
		c-4.7,4-10.8,6.5-18.1,7.4h-3.4c-5.5-0.6-8.3-2.9-8.3-7.1v-1.6c0-4.6,3.7-9.4,11.2-14.5L193.1,200.5z"/>
	<path fill="#6D6D6D" d="M229.3,199.7l1.3,1.9l-0.5,1.5l4,18.3c-0.1,1.7-0.9,3-2.6,4.1H231l-3.1-2.1c-0.9-0.8-1.3-1.4-1.3-1.6h-0.5
		l-0.6-0.4l-0.6-0.5l-2.7,0.9l-5.1,1.1l4.2-1.5l-7.9,2.3l-1.8-0.8l-1.3,0.4c0,0.5,0.4,0.8,1.3,0.8v0.7h-0.4
		c-3.8-1.7-5.7-3.8-5.7-6.1c-0.6,0-0.9-0.8-0.9-2.3c0.1-2.4,1.7-6.5,4.8-12.2l0.4-0.4h0.9c1.4,0.6,2.1,1.6,2.1,3v0.4l-0.9,1.1v0.4
		l0.4,2.7c-2,1-3.1,2.5-3.1,4.6v1.9c0.7,1.3,1.9,1.8,3.6,1.5l2-0.4l7-2.5c1.4-0.7,2.6-0.4,3.5,0.8l2.7,1.8l0.6,0.7l-2-7.3
		c-0.9-3.6-1.3-7.3-1.3-10.9C226.5,200.3,227.7,199.7,229.3,199.7z"/>
	<path fill="#6D6D6D" d="M278.8,184.6c1.7,0,2.6,0.9,2.6,2.6l-0.4,1.5l1.1,0.8l-0.4,1.9v0.3l0.4-0.3h0.3c0,0.5,0.4,0.7,1.1,0.7
		c8.9,0.3,13.3,1,13.3,2.3l-3.3,1.9c0,1-0.2,1.5-0.7,1.5h-5.6l-1.5-0.4l-1.5,0.4h-1.1l-1.9-0.4c0,0.4-0.6,0.8-1.9,1.1
		c-0.5,2.2-0.7,5.2-0.7,9.1v4.1l-0.8,0.8c-2.2-1.5-3.3-2.8-3.3-3.8l-0.4-5.3v-2.6l-0.4-1.9h-0.4c-4.3,0-7.7,1.6-10.3,4.9h-0.4
		l0.4,0.4v0.4h-1.1c0-0.5-0.5-0.8-1.5-0.8c-1.2-2-1.9-3.6-1.9-4.9c0-2.9,5.5-5,16.6-6.4C277.1,187.2,278.2,184.6,278.8,184.6z"/>
	<path fill="#6D6D6D" d="M329.7,172c3.2,0,5,1.9,5.5,5.8c-1.8,5.9-2.8,9.9-2.8,12h-1.7v0.5l1.1,1.4l-0.5,2.9v0.5
		c26.1-14.7,42-22,47.9-22l5,2.9c0,4.3-2,6.5-6.1,6.7l-1.7-0.5c-1.5,1.7-3.4,2.8-5.6,3.3l-0.6-0.5v-0.5l1.7-3.3v-0.5h-1.1
		c-1.9,0-8.2,2.7-18.9,8.2c-3.8,2.5-6.3,3.8-7.2,3.8l0.6,0.5v0.5c-2.3,0.6-3.6,1.4-3.9,2.4v0.5h2.2c0,0.7-0.9,1.2-2.8,1.4v1
		c14.4,4.2,26.1,8.8,35.1,13.9l29.5,17.7l1.7,1.9v1.9l-2.2,2c-2.9-1-8.6-4.5-17.3-10.5c-19.6-12.7-36.9-20.2-51.8-22.5l-2.2,0.5
		c0-1-0.4-1.4-1.1-1.4l-0.6,0.5h-0.5l-1.1-1c-1.5,0-2.2,1.7-2.2,5.2v1.9l-0.5,0.5v0.5h0.5l-0.5,0.5v0.5l0.5,0.5l-0.5,0.5v1
		c0,2.4,0.7,5.2,2.2,8.1h1.7l10.5-4.3v0.5l-6.1,5.8l0.6,0.5l-1.7,0.9h-3.3c-6.3,0-9.5-4-9.5-11.9l4.4-28.3l-0.5-2.4
		C326.8,175.2,328.1,172,329.7,172z M357.6,184l-0.6,0.5v0.5h0.6l1.7-0.5V184H357.6z M362,181.6v0.5h0.6l2.2-0.5v-0.5h-1.1
		L362,181.6z"/>
	<path fill="#6D6D6D" d="M413.2,199.4l3,1.1c0.2,2.8-0.6,6.4-2.3,11l-0.4,3.3c0.1,3.1,1.5,5.9,4.2,8.2l0.2,2.4
		c-1.1,0.2-2.1,0.2-2.8,0.2c-1.9,0-4.2-1.9-6.9-5.8l-0.8-3.5l-0.2-1.2l-0.4,0c-6.1,5.7-10.8,8.7-13.9,8.9c-1.8-0.2-3-0.8-3.5-1.8
		l-0.3-2.2C391.2,206.8,399.3,199.9,413.2,199.4z M395.4,217.9l2.2-1.7c7.2-5.6,11.3-9.7,12.2-12.3h-0.4
		C401.3,206.8,396.6,211.5,395.4,217.9z"/>
	<path fill="#6D6D6D" d="M423.8,185.6h1.8c1.1,0,2.6,5.7,4.3,17l0.7,2l5.7-0.5c8.1,0,12.2,1,12.2,3l-0.7,1l-0.4-0.5l-1.8,1l-0.4-0.5
		h-0.3l-1.4,0.5v-0.5l-0.4,0.5h-1v-0.5l-10.1,1c2.2,5.9,3.2,9.9,3.2,12.1c-1,1.7-2.2,2.7-3.6,3c-3.6,0-8-2.3-13.2-7
		c-1.3-1.7-2-3-2.1-4c0-2.5,3.2-5,9.7-7.5v-1c-1.9-7.2-2.9-12.4-2.9-15.5v-2.5L423.8,185.6z M422.7,214.6v0.5c3,2,5.1,3,6.5,3h0.7
		c-1.2-5-2.2-7.5-2.9-7.5h-0.7l-2.2,1C424.1,212.6,423.6,213.6,422.7,214.6z"/>
	<path fill="#6D6D6D" d="M462.1,200.5h2c1.9,0,3.3,1,4.4,2.9v2.5c0,1.5-1.5,4.4-4.4,8.7c0,1.9-0.5,2.9-1.5,2.9h-1.5l-2.9-2.5v-0.4
		c0-1.1,1.5-4,4.4-8.7v-0.4c-5.5,3.9-8.3,7.6-8.3,11.2v0.4c0,1.5,0.7,2.5,2,2.9h2c2.1,0,8.5-1.4,19.1-4.1h1v0.9
		c-4.7,4-10.8,6.5-18.1,7.4h-3.4c-5.5-0.6-8.3-2.9-8.3-7.1v-1.6c0-4.6,3.7-9.4,11.2-14.5L462.1,200.5z"/>
</g>
</svg>
