<?xml version="1.0" encoding="utf-8"?>
<!-- Generator: Adobe Illustrator 18.1.1, SVG Export Plug-In . SVG Version: 6.00 Build 0)  -->
<svg version="1.1" id="Layer_1" xmlns="http://www.w3.org/2000/svg" xmlns:xlink="http://www.w3.org/1999/xlink" x="0px" y="0px"
	 viewBox="0 0 500 100" enable-background="new 0 0 500 100" xml:space="preserve">
<g>
	<path fill="#6D6D6D" d="M22.5,12.3c3.5,0,5.6,2.1,6.1,6.4c-2,6.5-3.1,10.9-3.1,13.2h-1.8v0.5l1.2,1.6l-0.6,3.2v0.5
		c28.9-16.2,46.5-24.4,52.9-24.4l5.5,3.2c0,4.7-2.2,7.2-6.7,7.4l-1.8-0.5c-1.7,1.8-3.7,3.1-6.2,3.7l-0.6-0.5V26l1.8-3.7v-0.5H68
		c-2.1,0-9.1,3-20.9,9c-4.3,2.8-6.9,4.2-8,4.2l0.6,0.5v0.5c-2.6,0.7-4,1.6-4.3,2.6v0.5h2.5c0,0.8-1,1.3-3.1,1.6v1.1
		c16,4.7,28.9,9.8,38.8,15.3l32.6,19.6l1.8,2.1V81l-2.5,2.2c-3.2-1.1-9.6-5-19.1-11.6c-21.7-14-40.8-22.3-57.2-24.9l-2.5,0.5
		c0-1.1-0.4-1.6-1.2-1.6l-0.6,0.5h-0.6l-1.3-1.1c-1.7,0-2.5,1.9-2.5,5.8V53L20,53.5v0.6h0.6L20,54.6v0.5l0.6,0.5L20,56.2v1.1
		c0,2.7,0.8,5.7,2.5,9h1.8L36,61.5V62l-6.7,6.4l0.6,0.5l-1.8,1h-3.7c-7,0-10.5-4.4-10.5-13.2l4.9-31.3l-0.6-2.6
		C19.2,15.8,20.7,12.3,22.5,12.3z M53.3,25.5L52.6,26v0.5h0.6l1.8-0.5v-0.5H53.3z M58.2,22.9v0.5h0.6l2.4-0.5v-0.5H60L58.2,22.9z"/>
	<path fill="#6D6D6D" d="M114.8,42.6l3.3,1.3c0.2,3.1-0.7,7.1-2.6,12.2l-0.5,3.6c0.1,3.5,1.6,6.5,4.6,9.1l0.3,2.7
		c-1.3,0.2-2.3,0.3-3.1,0.3c-2.1,0-4.7-2.1-7.6-6.4l-0.8-3.8l-0.2-1.3l-0.4,0.1c-6.8,6.3-11.9,9.6-15.3,9.9c-2-0.2-3.3-0.9-3.8-2
		l-0.4-2.5C90.5,50.7,99.4,43,114.8,42.6z M95.1,63l2.5-1.8c8-6.2,12.5-10.8,13.5-13.6h-0.4C101.6,50.7,96.4,55.9,95.1,63z"/>
	<path fill="#6D6D6D" d="M126.5,27.2h2c1.3,0,2.8,6.3,4.7,18.8l0.8,2.2l6.3-0.6c9,0,13.5,1.1,13.5,3.3l-0.8,1.1l-0.4-0.5l-2,1.1
		l-0.4-0.6h-0.4l-1.6,0.6v-0.6l-0.4,0.6h-1.2v-0.6l-11.1,1.1c2.4,6.5,3.6,10.9,3.6,13.3c-1.1,1.9-2.4,3-4,3.3c-4,0-8.9-2.6-14.7-7.7
		c-1.4-1.9-2.2-3.3-2.4-4.4c0-2.7,3.6-5.5,10.7-8.3v-1.1c-2.1-8-3.2-13.7-3.2-17.2v-2.7L126.5,27.2z M125.3,59.3v0.6
		c3.3,2.2,5.7,3.3,7.2,3.3h0.8c-1.3-5.6-2.4-8.3-3.2-8.3h-0.8l-2.4,1.1C126.9,57.1,126.3,58.2,125.3,59.3z"/>
	<path fill="#6D6D6D" d="M168.9,43.8h2.2c2.1,0,3.7,1.1,4.8,3.2v2.7c0,1.6-1.6,4.8-4.8,9.6c0,2.1-0.5,3.2-1.6,3.2h-1.6l-3.2-2.7
		v-0.5c0-1.2,1.6-4.4,4.9-9.6v-0.5c-6.1,4.3-9.2,8.5-9.2,12.4v0.4c0,1.7,0.7,2.7,2.2,3.2h2.2c2.4,0,9.4-1.5,21.1-4.6h1.1v0.9
		c-5.2,4.4-11.9,7.2-20,8.2h-3.8c-6.1-0.6-9.2-3.2-9.2-7.8v-1.8c0-5.1,4.1-10.4,12.4-16L168.9,43.8z"/>
	<path fill="#6D6D6D" d="M230.5,26.1c1.9,0,2.8,1,2.8,2.9l-0.4,1.7l1.3,0.8l-0.4,2.1V34l0.4-0.4h0.4c0,0.5,0.4,0.8,1.3,0.8
		c9.8,0.3,14.7,1.1,14.7,2.5l-3.7,2.1c0,1.1-0.3,1.7-0.8,1.7h-6.2l-1.6-0.4l-1.6,0.4h-1.2l-2.1-0.4c0,0.5-0.7,0.9-2.1,1.3
		c-0.5,2.5-0.8,5.8-0.8,10v4.6l-0.8,0.8c-2.4-1.7-3.6-3.1-3.6-4.2l-0.4-5.9v-2.9l-0.4-2.1h-0.4c-4.7,0-8.5,1.8-11.4,5.4h-0.4
		l0.4,0.4v0.4h-1.2c0-0.6-0.5-0.8-1.6-0.8c-1.4-2.2-2.1-4-2.1-5.4c0-3.2,6.1-5.6,18.4-7.1C228.6,29,229.9,26.1,230.5,26.1z"/>
	<path fill="#6D6D6D" d="M307.2,12.3c4.8,0,9,5.3,12.5,16l0.6,0.5v0.5l-0.6,2.8c1,0,1.9,1.7,2.7,5.2c1.4,0.9,3.1,1.4,4.9,1.4
		l0.5,0.5v0.5c0,0.6-0.9,0.9-2.7,0.9v0.4l1.1,3.8l-0.5-0.5h-0.5v0.9h0.5l0.5-0.5h0.6c0.4,2.8,1,4.2,1.6,4.2l-0.6,0.5v0.9h0.6v-0.9
		h1.1l2.2,5.6l-0.5,0.5c0.9,0,1.8,0.8,2.7,2.3l-0.5,0.5v0.5c2.2,2.1,3.3,4.5,3.3,7.1l-2.7,3.7h-1.1c-5-1.3-7.6-2.4-7.6-3.3
		c3.3-0.7,4.9-1.3,4.9-1.9c0-1.2-3.3-8.1-9.8-20.7c-0.6,0-1.1-0.6-1.6-1.9c-2.2,0-3.3,0.5-3.3,1.4l-0.5-0.5h-0.5l-2.2,1.9l-0.5-0.5
		H311c-3.2,0.6-5.7,1.6-7.6,2.8l-1.6-0.5c-0.6,0.8-3,2.1-7.1,3.8l-2.7,7l0.6,0.5h0.5l-1.6,2.8l0.5,0.5v0.5c-1.1,4.3-2.2,6.9-3.3,8
		c0,0.9-0.4,1.4-1.1,1.4l1.6,7.5l-2.7,1.4c-2.9-0.2-4.4-1.4-4.4-3.3c0-3.2,0.9-8.2,2.7-15c-7.3-0.5-10.9-2.6-10.9-6.1v-0.9
		c2.7-1.9,8-4.7,15.8-8.5C296.5,23.5,302.3,12.3,307.2,12.3z M283.7,56.9v0.9h2.7L287,55h-0.5L283.7,56.9z M308.3,17.9l-6.5,8.4
		l0.5,0.5v0.5l-0.5,0.5h-0.6l-0.5-0.5v0.5l0.5,1.9h-0.5l0.5,0.5V31l-1.1,0.9v-2.3h-0.6l-1.6,5.2v0.5h0.6v-0.9h0.5v0.9
		c-0.4,1.9-0.9,2.8-1.6,2.8l-0.5-0.5l0.5,3.3v2.4l8.2-2.4l0.6,0.5h0.5l7.6-2.3l1.6,0.5l0.5-0.5l0.5,0.5l0.6-0.5v-0.5
		c0-2.7-2.9-9.6-8.8-20.7H308.3z"/>
	<path fill="#6D6D6D" d="M338.9,43.1h1.8c1.8,1.5,2.7,3.1,2.7,4.7l-0.5,2.1l0.5,9.4h0.5c3.5-8.4,6.7-12.6,9.5-12.6
		c2.2,0,4.3,4.9,6.3,14.7c1.4,3.2,3.1,4.7,5,4.7l1.8-0.5l1.8,1.6v2.1c0,1.2-1.7,2.1-5,2.6h-1.8c-2.2-1.1-4.1-3.2-5.9-6.3
		c-1.1-2-2.1-5.5-3.2-10.5c-0.5,0-1.5,1.9-3.2,5.7c-3.6,5.9-6.3,8.9-8.2,8.9c-2.2,0-3.4-3.1-3.6-9.4V44.7L338.9,43.1z"/>
	<path fill="#6D6D6D" d="M389.1,8.6h0.9c5,0,8.9,8.1,11.6,24.3c0,18-7.2,30.1-21.7,36.4l-4.8,0.5c-5.5-0.9-8.2-4-8.2-9.2v-1.2
		c0-6,4-11,12.1-15h2.4l2.4,2.9v2.3c-7.1,3-10.6,6.6-10.6,11v1.2l1.5,1.7h1.9c5.3,0,11.2-5.8,17.9-17.3c1.3-4.3,1.9-8.5,1.9-12.7
		c0-9.8-2.7-16.2-8.2-19.1l-0.5-2.3C388,9.8,388.5,8.6,389.1,8.6z"/>
	<path fill="#6D6D6D" d="M419.5,42.7c3.6,0.7,5.4,2.4,5.4,5.2c-0.7,1.5-1.4,2.4-2.2,2.5l-2.2-0.5l-8.7,19.5l-3.8,0.5h-1.1
		c-3.6-3.3-5.4-8-5.4-14.3v-2.1c0-3.8,0.5-5.6,1.6-5.6h1.6c2.1,0,3.3,3.9,3.8,11.8h0.6C412.9,48.3,416.3,42.7,419.5,42.7z"/>
	<path fill="#6D6D6D" d="M440.9,43.8h2.2c2.1,0,3.7,1.1,4.8,3.2v2.7c0,1.6-1.6,4.8-4.8,9.6c0,2.1-0.5,3.2-1.6,3.2h-1.6l-3.2-2.7
		v-0.5c0-1.2,1.6-4.4,4.8-9.6v-0.5c-6.1,4.3-9.2,8.5-9.2,12.4v0.4c0,1.7,0.7,2.7,2.2,3.2h2.2c2.4,0,9.4-1.5,21.1-4.6h1.1v0.9
		c-5.2,4.4-11.9,7.2-20,8.2h-3.8c-6.1-0.6-9.2-3.2-9.2-7.8v-1.8c0-5.1,4.1-10.4,12.4-16L440.9,43.8z"/>
	<path fill="#6D6D6D" d="M480.8,42.8l1.5,2.1l-0.5,1.7l4.4,20.2c-0.1,1.8-1,3.4-2.9,4.6h-0.5l-3.4-2.4c-0.9-0.9-1.4-1.5-1.4-1.8
		h-0.5l-0.6-0.5l-0.7-0.5l-3,1l-5.6,1.2l4.6-1.6l-8.7,2.5l-2-0.8l-1.5,0.4c0,0.6,0.5,0.8,1.5,0.8v0.8H461c-4.2-1.9-6.3-4.2-6.3-6.7
		c-0.6,0-0.9-0.8-0.9-2.5c0.1-2.7,1.8-7.2,5.3-13.4l0.5-0.4h1c1.6,0.7,2.4,1.8,2.4,3.3v0.4l-0.9,1.3v0.4l0.5,3
		c-2.2,1.1-3.4,2.8-3.4,5.1V63c0.8,1.4,2.1,2,4,1.7l2.3-0.4l7.7-2.7c1.5-0.7,2.8-0.4,3.8,0.9l3,2l0.7,0.7l-2.2-8.1
		c-0.9-4-1.4-8-1.4-12.1C477.8,43.5,479.1,42.8,480.8,42.8z"/>
</g>
</svg>
